<svg width="22" height="22" viewBox="0 0 22 22" fill="none" xmlns="http://www.w3.org/2000/svg">
<path d="M18.815 3.02408C17.2786 1.58477 15.3177 0.602496 13.1808 0.201789C11.044 -0.198918 8.82742 -1.6275e-05 6.81215 0.773279C4.79688 1.54657 3.07365 2.85944 1.86089 4.54545C0.648134 6.23147 0.000469603 8.2147 0 10.2437V15.553C0 16.2571 0.300461 16.9323 0.835285 17.4301C1.37011 17.928 2.09549 18.2077 2.85184 18.2077H4.48146C5.23782 18.2077 5.9632 17.928 6.49802 17.4301C7.03284 16.9323 7.33331 16.2571 7.33331 15.553V11.7607C7.33331 11.0566 7.03284 10.3814 6.49802 9.88357C5.9632 9.38573 5.23782 9.10605 4.48146 9.10605H2.52999C2.82495 7.21071 3.84335 5.47764 5.39876 4.22408C6.95418 2.97053 8.94257 2.28033 11 2.27984H11.0651C13.1134 2.288 15.09 2.98234 16.6333 4.23583C18.1767 5.48932 19.1836 7.21815 19.4699 9.10605H17.5185C16.7621 9.10605 16.0367 9.38573 15.5019 9.88357C14.9671 10.3814 14.6666 11.0566 14.6666 11.7607V15.553C14.6666 16.2571 14.9671 16.9323 15.5019 17.4301C16.0367 17.928 16.7621 18.2077 17.5185 18.2077H19.5147C19.4208 18.636 19.1708 19.0209 18.807 19.2973C18.4433 19.5737 17.988 19.7247 17.5185 19.7246H11.8148C11.4906 19.7246 11.1797 19.8445 10.9505 20.0578C10.7213 20.2712 10.5926 20.5606 10.5926 20.8623C10.5926 21.164 10.7213 21.4534 10.9505 21.6668C11.1797 21.8801 11.4906 22 11.8148 22H17.5185C18.7066 21.9987 19.8457 21.5588 20.6858 20.7768C21.526 19.9947 21.9986 18.9344 21.9999 17.8284V10.2437C22.0055 8.90446 21.7271 7.57732 21.1805 6.33842C20.634 5.09951 19.8301 3.97321 18.815 3.02408ZM4.48146 11.3814C4.58952 11.3814 4.69314 11.4214 4.76954 11.4925C4.84595 11.5636 4.88887 11.6601 4.88887 11.7607V15.553C4.88887 15.6536 4.84595 15.7501 4.76954 15.8212C4.69314 15.8923 4.58952 15.9323 4.48146 15.9323H2.85184C2.74379 15.9323 2.64017 15.8923 2.56376 15.8212C2.48736 15.7501 2.44444 15.6536 2.44444 15.553V11.3814H4.48146ZM17.111 15.553V11.7607C17.111 11.6601 17.154 11.5636 17.2304 11.4925C17.3068 11.4214 17.4104 11.3814 17.5185 11.3814H19.5555V15.9323H17.5185C17.4104 15.9323 17.3068 15.8923 17.2304 15.8212C17.154 15.7501 17.111 15.6536 17.111 15.553Z" fill="white"/>
</svg>
