<svg width="22" height="22" viewBox="0 0 22 22" fill="none" xmlns="http://www.w3.org/2000/svg">
<path fill-rule="evenodd" clip-rule="evenodd" d="M0.785714 0C0.57733 0 0.37748 0.0891461 0.23013 0.247827C0.0827804 0.406509 0 0.621727 0 0.846136C0 1.07055 0.0827804 1.28576 0.23013 1.44444C0.37748 1.60313 0.57733 1.69227 0.785714 1.69227H1.57143V13.5382C1.57143 14.4358 1.90255 15.2967 2.49195 15.9314C3.08135 16.5661 3.88075 16.9227 4.71429 16.9227H5.98191L4.7541 20.886C4.68825 21.0991 4.70368 21.3315 4.797 21.5323C4.89032 21.7331 5.05389 21.8858 5.25171 21.9567C5.44954 22.0276 5.66542 22.011 5.85187 21.9105C6.03832 21.81 6.18006 21.6338 6.2459 21.4208L6.59057 20.3073H15.4094L15.7551 21.4208C15.8267 21.6256 15.9691 21.7927 16.1526 21.8868C16.336 21.9809 16.5462 21.9949 16.739 21.9257C16.9318 21.8565 17.0922 21.7095 17.1865 21.5156C17.2809 21.3218 17.3018 21.0961 17.2449 20.886L16.0191 16.9227H17.2857C18.1193 16.9227 18.9187 16.5661 19.5081 15.9314C20.0975 15.2967 20.4286 14.4358 20.4286 13.5382V1.69227H21.2143C21.4227 1.69227 21.6225 1.60313 21.7699 1.44444C21.9172 1.28576 22 1.07055 22 0.846136C22 0.621727 21.9172 0.406509 21.7699 0.247827C21.6225 0.0891461 21.4227 0 21.2143 0H0.785714ZM7.63714 16.9227H14.3629L14.8867 18.615H7.11333L7.63714 16.9227ZM16.1071 6.77473C16.1972 6.71958 16.2763 6.64578 16.3398 6.55759C16.4033 6.4694 16.4499 6.36855 16.4771 6.26086C16.5042 6.15317 16.5113 6.04076 16.498 5.93011C16.4846 5.81945 16.4511 5.71273 16.3992 5.61609C16.3474 5.51945 16.2784 5.43481 16.1961 5.36702C16.1138 5.29924 16.0198 5.24966 15.9196 5.22114C15.8195 5.19262 15.715 5.18572 15.6124 5.20083C15.5097 5.21595 15.4108 5.25279 15.3214 5.30922C13.893 6.19962 12.6294 7.36612 11.594 8.75017L9.98381 7.01729C9.83649 6.85884 9.63679 6.76983 9.42857 6.76983C9.22036 6.76983 9.02066 6.85884 8.87333 7.01729L5.73048 10.4018C5.65328 10.4793 5.59136 10.5727 5.54842 10.6765C5.50548 10.7803 5.48238 10.8923 5.48052 11.0059C5.47866 11.1196 5.49807 11.2324 5.53759 11.3378C5.5771 11.4431 5.63592 11.5388 5.71053 11.6192C5.78514 11.6995 5.87402 11.7629 5.97185 11.8054C6.06969 11.848 6.17448 11.8689 6.27998 11.8669C6.38547 11.8649 6.48952 11.84 6.5859 11.7938C6.68228 11.7475 6.76902 11.6808 6.84095 11.5977L9.42857 8.8111L11.1226 10.6365C11.2038 10.724 11.302 10.7913 11.41 10.8335C11.518 10.8758 11.6333 10.892 11.7478 10.881C11.8623 10.87 11.9732 10.8321 12.0726 10.77C12.172 10.7079 12.2575 10.623 12.3231 10.5214C13.3147 8.98942 14.6065 7.71044 16.1071 6.77473Z" fill="white"/>
</svg>
