<svg width="300" height="179" viewBox="0 0 300 179" fill="none" xmlns="http://www.w3.org/2000/svg">
<g clip-path="url(#clip0_2891_528)">
<path d="M150 85.25C135.082 85.25 120.774 79.3237 110.225 68.7748C99.6763 58.2258 93.75 43.9184 93.75 29C93.75 14.0816 99.6763 -0.22583 110.225 -10.7748C120.774 -21.3237 135.082 -27.25 150 -27.25C164.918 -27.25 179.226 -21.3237 189.775 -10.7748C200.324 -0.22583 206.25 14.0816 206.25 29C206.25 43.9184 200.324 58.2258 189.775 68.7748C179.226 79.3237 164.918 85.25 150 85.25ZM150 104C169.891 104 188.968 96.0982 203.033 82.033C217.098 67.9678 225 48.8912 225 29C225 9.10876 217.098 -9.96778 203.033 -24.033C188.968 -38.0982 169.891 -46 150 -46C130.109 -46 111.032 -38.0982 96.967 -24.033C82.9018 -9.96778 75 9.10876 75 29C75 48.8912 82.9018 67.9678 96.967 82.033C111.032 96.0982 130.109 104 150 104ZM150 -121C152.486 -121 154.871 -120.012 156.629 -118.254C158.387 -116.496 159.375 -114.111 159.375 -111.625V-74.125C159.375 -71.6386 158.387 -69.254 156.629 -67.4959C154.871 -65.7377 152.486 -64.75 150 -64.75C147.514 -64.75 145.129 -65.7377 143.371 -67.4959C141.613 -69.254 140.625 -71.6386 140.625 -74.125V-111.625C140.625 -114.111 141.613 -116.496 143.371 -118.254C145.129 -120.012 147.514 -121 150 -121ZM150 122.75C152.486 122.75 154.871 123.738 156.629 125.496C158.387 127.254 159.375 129.639 159.375 132.125V169.625C159.375 172.111 158.387 174.496 156.629 176.254C154.871 178.012 152.486 179 150 179C147.514 179 145.129 178.012 143.371 176.254C141.613 174.496 140.625 172.111 140.625 169.625V132.125C140.625 129.639 141.613 127.254 143.371 125.496C145.129 123.738 147.514 122.75 150 122.75ZM300 29C300 31.4864 299.012 33.871 297.254 35.6291C295.496 37.3873 293.111 38.375 290.625 38.375H253.125C250.639 38.375 248.254 37.3873 246.496 35.6291C244.738 33.871 243.75 31.4864 243.75 29C243.75 26.5136 244.738 24.129 246.496 22.3709C248.254 20.6127 250.639 19.625 253.125 19.625H290.625C293.111 19.625 295.496 20.6127 297.254 22.3709C299.012 24.129 300 26.5136 300 29ZM56.25 29C56.25 31.4864 55.2623 33.871 53.5041 35.6291C51.746 37.3873 49.3614 38.375 46.875 38.375H9.375C6.8886 38.375 4.50403 37.3873 2.74587 35.6291C0.987721 33.871 0 31.4864 0 29C0 26.5136 0.987721 24.129 2.74587 22.3709C4.50403 20.6127 6.8886 19.625 9.375 19.625H46.875C49.3614 19.625 51.746 20.6127 53.5041 22.3709C55.2623 24.129 56.25 26.5136 56.25 29ZM256.069 -77.0688C257.826 -75.3107 258.814 -72.9265 258.814 -70.4406C258.814 -67.9547 257.826 -65.5706 256.069 -63.8125L229.556 -37.2812C228.685 -36.4108 227.65 -35.7206 226.512 -35.25C225.373 -34.7794 224.153 -34.5377 222.922 -34.5385C220.434 -34.5403 218.049 -35.5303 216.291 -37.2906C215.42 -38.1623 214.73 -39.1968 214.259 -40.3352C213.789 -41.4736 213.547 -42.6936 213.548 -43.9254C213.55 -46.4132 214.54 -48.7984 216.3 -50.5563L242.812 -77.0688C244.571 -78.8263 246.955 -79.8136 249.441 -79.8136C251.927 -79.8136 254.311 -78.8263 256.069 -77.0688ZM83.7 95.3C85.4575 97.0581 86.4449 99.4422 86.4449 101.928C86.4449 104.414 85.4575 106.798 83.7 108.556L57.1875 135.069C55.4194 136.776 53.0512 137.721 50.5931 137.7C48.135 137.679 45.7837 136.693 44.0455 134.955C42.3073 133.216 41.3213 130.865 41.2999 128.407C41.2786 125.949 42.2235 123.581 43.9312 121.812L70.4437 95.3C72.2018 93.5425 74.586 92.5551 77.0719 92.5551C79.5578 92.5551 81.9419 93.5425 83.7 95.3ZM256.069 135.069C254.311 136.826 251.927 137.814 249.441 137.814C246.955 137.814 244.571 136.826 242.812 135.069L216.3 108.556C214.592 106.788 213.647 104.42 213.669 101.962C213.69 99.5038 214.676 97.1524 216.414 95.4142C218.152 93.676 220.504 92.69 222.962 92.6687C225.42 92.6473 227.788 93.5923 229.556 95.3L256.069 121.812C257.826 123.571 258.814 125.955 258.814 128.441C258.814 130.927 257.826 133.311 256.069 135.069ZM83.7 -37.2812C81.9419 -35.5237 79.5578 -34.5364 77.0719 -34.5364C74.586 -34.5364 72.2018 -35.5237 70.4437 -37.2812L43.9312 -63.8125C43.0358 -64.6773 42.3216 -65.7118 41.8303 -66.8556C41.339 -67.9994 41.0803 -69.2296 41.0695 -70.4744C41.0587 -71.7192 41.2959 -72.9537 41.7673 -74.1058C42.2387 -75.258 42.9348 -76.3047 43.815 -77.185C44.6953 -78.0652 45.742 -78.7613 46.8942 -79.2327C48.0463 -79.7041 49.2808 -79.9413 50.5256 -79.9305C51.7704 -79.9197 53.0006 -79.661 54.1444 -79.1697C55.2882 -78.6784 56.3227 -77.9642 57.1875 -77.0688L83.7 -50.5563C84.5731 -49.6854 85.2657 -48.6508 85.7384 -47.5119C86.211 -46.3729 86.4543 -45.1519 86.4543 -43.9187C86.4543 -42.6856 86.211 -41.4646 85.7384 -40.3256C85.2657 -39.1866 84.5731 -38.1521 83.7 -37.2812Z" fill="white"/>
</g>
<defs>
<clipPath id="clip0_2891_528">
<rect width="300" height="300" fill="white" transform="translate(0 -121)"/>
</clipPath>
</defs>
</svg>
