<svg width="200" height="177" viewBox="0 0 200 177" fill="none" xmlns="http://www.w3.org/2000/svg">
<path d="M120.833 179.167V160L131.667 162.083C143.75 164.583 155 155.833 155.833 143.75L158.333 116.667L170.417 111.667C174.583 110 176.25 105 173.75 100.833L158.333 75C155.833 43.3333 137.917 12.5 91.6666 12.5C44.1666 12.5 20.8333 47.5 20.8333 83.3333C20.8333 98.75 26.2499 112.083 34.5833 123.333C42.0833 133.75 45.8333 146.25 45.8333 158.75V178.75H120.833V179.167Z" fill="white"/>
<path d="M120.833 179.167V160L91.6667 154.167V179.167H120.833Z" fill="white"/>
<path d="M139.583 95.8333C143.035 95.8333 145.833 93.035 145.833 89.5833C145.833 86.1315 143.035 83.3333 139.583 83.3333C136.131 83.3333 133.333 86.1315 133.333 89.5833C133.333 93.035 136.131 95.8333 139.583 95.8333Z" fill="#1FAB89"/>
<path d="M89.1666 12.5C51.2499 12.5 20.8333 42.9167 20.8333 80.8333C20.8333 127.083 45.8333 128.333 45.8333 158.333L56.6666 154.583C65.4166 151.667 72.9166 145 76.2499 136.25L87.9166 107.917L112.5 95.8333V70.8333C112.5 70.8333 141.667 55 141.667 27.9167C129.167 17.5 107.083 12.5 89.1666 12.5Z" fill="#275247"/>
<path d="M87.4999 8.75C84.9999 8.75 83.3333 10.4167 83.3333 12.9167V70.8333C83.3333 73.3333 84.9999 75 87.4999 75C89.9999 75 91.6666 73.3333 91.6666 70.8333V12.9167C91.6666 10.4167 89.9999 8.75 87.4999 8.75Z" fill="#62D2A2"/>
<path d="M153.75 132.917C120.833 132.917 110.833 112.5 110.417 111.667C109.583 109.583 107.083 108.75 105 109.583C102.917 110.417 102.083 112.917 102.917 115C103.333 116.25 115.417 141.25 153.75 141.25C156.25 141.25 157.917 139.583 157.917 137.083C157.917 134.583 155.833 132.917 153.75 132.917Z" fill="#62D2A2"/>
<path d="M154.167 145.833C158.769 145.833 162.5 142.102 162.5 137.5C162.5 132.898 158.769 129.167 154.167 129.167C149.564 129.167 145.833 132.898 145.833 137.5C145.833 142.102 149.564 145.833 154.167 145.833Z" fill="#275247"/>
<path d="M87.4999 125C103.608 125 116.667 111.942 116.667 95.8334C116.667 79.7251 103.608 66.6667 87.4999 66.6667C71.3916 66.6667 58.3333 79.7251 58.3333 95.8334C58.3333 111.942 71.3916 125 87.4999 125Z" fill="#1FAB89"/>
<path d="M87.4999 112.5C96.7047 112.5 104.167 105.038 104.167 95.8334C104.167 86.6287 96.7047 79.1667 87.4999 79.1667C78.2952 79.1667 70.8333 86.6287 70.8333 95.8334C70.8333 105.038 78.2952 112.5 87.4999 112.5Z" fill="#62D2A2"/>
</svg>
