<svg width="20" height="20" viewBox="0 0 20 20" fill="none" xmlns="http://www.w3.org/2000/svg">
<g clip-path="url(#clip0_4059_1078)">
<path d="M10 11.3125C10.8288 11.3125 11.6237 10.9833 12.2097 10.3972C12.7958 9.81116 13.125 9.0163 13.125 8.1875C13.125 7.3587 12.7958 6.56384 12.2097 5.97779C11.6237 5.39174 10.8288 5.0625 10 5.0625C9.1712 5.0625 8.37634 5.39174 7.79029 5.97779C7.20424 6.56384 6.875 7.3587 6.875 8.1875C6.875 9.0163 7.20424 9.81116 7.79029 10.3972C8.37634 10.9833 9.1712 11.3125 10 11.3125Z" fill="white"/>
<path d="M2.5 2.5C1.83696 2.5 1.20107 2.76339 0.732233 3.23223C0.263392 3.70107 0 4.33696 0 5L0 15C0 15.663 0.263392 16.2989 0.732233 16.7678C1.20107 17.2366 1.83696 17.5 2.5 17.5H17.5C18.163 17.5 18.7989 17.2366 19.2678 16.7678C19.7366 16.2989 20 15.663 20 15V5C20 4.33696 19.7366 3.70107 19.2678 3.23223C18.7989 2.76339 18.163 2.5 17.5 2.5H2.5ZM15.9975 16.25C15.4313 14.6625 13.7975 12.5 10 12.5C6.20375 12.5 4.56875 14.6625 4.0025 16.25H2.5C2.16848 16.25 1.85054 16.1183 1.61612 15.8839C1.3817 15.6495 1.25 15.3315 1.25 15V5C1.25 4.66848 1.3817 4.35054 1.61612 4.11612C1.85054 3.8817 2.16848 3.75 2.5 3.75H17.5C17.8315 3.75 18.1495 3.8817 18.3839 4.11612C18.6183 4.35054 18.75 4.66848 18.75 5V15C18.75 15.3315 18.6183 15.6495 18.3839 15.8839C18.1495 16.1183 17.8315 16.25 17.5 16.25H15.9975Z" fill="white"/>
</g>
<defs>
<clipPath id="clip0_4059_1078">
<rect width="20" height="20" fill="white"/>
</clipPath>
</defs>
</svg>
