<svg width="25" height="25" viewBox="0 0 25 25" fill="none" xmlns="http://www.w3.org/2000/svg">
<path fill-rule="evenodd" clip-rule="evenodd" d="M19.5278 4.06019C19.5284 4.06036 19.5288 4.06063 19.5298 4.06163L20.9383 5.47008C20.9393 5.47108 20.9396 5.47154 20.9397 5.47213C20.9399 5.47268 20.9399 5.47326 20.9397 5.47381C20.9396 5.47437 20.9393 5.47484 20.9383 5.47584L13.9143 12.4998L20.9383 19.5238C20.9393 19.5248 20.9396 19.5253 20.9397 19.5259C20.9399 19.5264 20.9399 19.527 20.9397 19.5276C20.9396 19.5281 20.9393 19.5286 20.9383 19.5296L19.5298 20.938C19.5288 20.939 19.5284 20.9393 19.5278 20.9395C19.5272 20.9397 19.5267 20.9397 19.5261 20.9395C19.5255 20.9393 19.5251 20.939 19.5241 20.938L12.5001 13.914L5.47608 20.938C5.47511 20.939 5.47462 20.9393 5.47406 20.9395C5.4735 20.9397 5.4729 20.9397 5.47235 20.9395C5.47181 20.9393 5.47132 20.939 5.47032 20.938L4.06187 19.5296C4.06087 19.5286 4.0606 19.5281 4.06043 19.5275C4.06026 19.527 4.06026 19.5264 4.06043 19.5259C4.0606 19.5253 4.06087 19.5248 4.06187 19.5238L11.0858 12.4998L4.06187 5.47584C4.06087 5.47486 4.0606 5.47437 4.06043 5.47381C4.06026 5.47325 4.06026 5.47266 4.06043 5.4721C4.0606 5.47157 4.06087 5.47108 4.06187 5.47008L5.47032 4.06163C5.47132 4.06063 5.47178 4.06036 5.47237 4.06019C5.47292 4.06002 5.47351 4.06002 5.47406 4.06019C5.47462 4.06036 5.47508 4.06063 5.47608 4.06163L12.5001 11.0856L19.5241 4.06163C19.5251 4.06063 19.5255 4.06036 19.5261 4.06019C19.5267 4.06002 19.5273 4.06002 19.5278 4.06019H19.5278Z" fill="#8E8E93"/>
</svg>
